<?xml version="1.0" encoding="UTF-8" standalone="no"?>
<svg
 width="1769.8353"
 height="508.83273"
 viewBox="0 0 1769.8353 508.83273"
 version="1.1"
 id="scuolasync_svg"
 xml:space="preserve"
 sodipodi:docname="scuolasync.svg"
 inkscape:version="1.2.1 (9c6d41e410, 2022-07-14)"
 xmlns:inkscape="http://www.inkscape.org/namespaces/inkscape"
 xmlns:sodipodi="http://sodipodi.sourceforge.net/DTD/sodipodi-0.dtd"
 xmlns="http://www.w3.org/2000/svg"
 xmlns:svg="http://www.w3.org/2000/svg">
 <style>
@media (prefers-color-scheme: dark) {
  #txt_scuola path,
  #txt_ync path {
    fill: #fff;
  }
  #scuolasync_s {
    stroke: #cf222b !important;
  }
}
 </style>
 <g
  id="scuolasync_svg_group"
  inkscape:label="scuolasync"
  transform="translate(-12.140733,-5.2822644)">
  <g
   id="scuolasync_txt"
   inkscape:label="scuolasync_txt">
   <g
    aria-label="Scuola"
    id="txt_scuola"
    inkscape:label="txt_scuola">
    <path
     d="m 108.5308,377.51852 q -19.498758,0 -37.893808,-5.88642 -18.027149,-5.88642 -33.11109,-19.13085 -15.083941,-13.61234 -25.385169,-36.7901 L 42.676516,298.4198 q 12.876535,23.17776 28.328377,33.47899 15.451842,10.30123 38.629607,10.30123 22.44196,0 33.84689,-9.93333 11.77283,-9.93333 11.77283,-27.22467 0,-10.30123 -5.15061,-18.02715 -4.78271,-7.72592 -17.29135,-14.34814 Q 120.30363,266.04451 97.493765,260.526 68.797487,253.16798 52.609843,242.49885 36.7901,231.46182 30.535783,217.48158 24.281466,203.13344 24.281466,186.5779 q 0,-20.60246 9.565426,-35.6864 9.565426,-15.45184 27.592575,-23.91357 18.027149,-8.82962 42.676513,-8.82962 29.43208,0 48.56294,11.40493 19.13085,11.03703 32.37528,30.53578 l -30.90368,19.86666 q -11.40493,-13.98024 -23.91357,-19.86666 -12.14073,-6.25431 -26.12097,-6.25431 -21.338255,0 -32.743186,8.46172 -11.03703,8.46172 -11.03703,24.28147 0,13.61233 10.301228,23.54566 10.669129,9.93333 41.204908,17.29135 30.90369,7.72592 48.19504,18.39505 17.65924,10.30122 24.64936,25.01726 7.35802,14.34814 7.35802,34.5827 0,20.23455 -10.30123,36.4222 -10.30122,16.18764 -29.06417,26.12097 -18.76296,9.56543 -44.14812,9.56543 z"
     id="txt_scuola_s"
     inkscape:label="txt_scuola_s" />
    <path
     d="m 288.43436,375.67901 q -27.59258,0 -47.82713,-11.77283 -20.23456,-12.14074 -31.27159,-33.11109 -11.03703,-20.97036 -11.03703,-48.56293 0,-27.59258 11.03703,-48.56294 11.03703,-20.97035 31.27159,-32.74319 20.23455,-12.14073 47.82713,-12.14073 26.12097,0 47.45923,14.34814 21.33825,13.98024 30.90368,37.5259 l -34.95059,14.71604 q -5.88642,-15.45184 -17.65925,-23.17776 -11.77283,-8.09382 -26.85678,-8.09382 -22.07406,0 -36.7901,15.45184 -14.71604,15.08394 -14.71604,42.67652 0,27.59257 14.71604,43.04441 14.71604,15.08394 36.7901,15.08394 15.08395,0 26.85678,-7.72592 11.77283,-8.09382 17.65925,-23.54566 l 34.95059,14.71604 q -9.93333,23.54566 -31.27158,37.8938 -20.97036,13.98024 -47.09133,13.98024 z"
     id="txt_scuola_c"
     inkscape:label="txt_scuola_c" />
    <path
     d="m 442.21731,375.67901 q -20.23455,0 -32.00739,-6.25432 -11.77283,-6.62222 -17.29134,-17.29134 -5.51852,-11.03703 -7.35802,-24.64937 -1.47161,-13.61234 -1.47161,-27.96048 V 192.46431 h 36.7901 v 114.78511 q 0,19.13086 8.46173,25.75307 8.82962,6.62222 20.60245,6.62222 12.14073,0 23.91357,-4.78271 12.14073,-4.78271 21.70616,-12.87654 9.93332,-8.46172 14.71604,-18.02715 v 20.60246 h -5.88642 V 192.46431 h 36.7901 V 372 H 513.2222 l -7.72592,-31.63949 9.19753,-1.1037 q -9.56543,11.40493 -21.33826,19.86665 -11.77283,8.09383 -24.64937,12.50864 -12.87653,4.04691 -26.48887,4.04691 z"
     id="txt_scuola_u"
     inkscape:label="txt_scuola_u" />
    <path
     d="m 656.33624,375.67901 q -27.22467,0 -48.19503,-11.40493 -20.60246,-11.77283 -32.00739,-32.74319 -11.40493,-20.97036 -11.40493,-48.93083 0,-28.32838 11.40493,-49.29874 11.40493,-20.97035 32.00739,-32.74319 20.97036,-11.77283 48.19503,-11.77283 27.59258,0 48.19503,11.77283 20.60246,11.77284 32.00739,32.74319 11.77283,20.97036 11.77283,49.29874 0,27.96047 -11.77283,48.93083 -11.40493,20.97036 -32.00739,32.74319 -20.60245,11.40493 -48.19503,11.40493 z m 0,-35.3185 q 24.64937,0 39.36541,-15.81974 15.08394,-16.18764 15.08394,-41.94071 0,-26.12097 -15.08394,-42.30862 -14.71604,-16.18764 -39.36541,-16.18764 -24.28147,0 -39.36541,16.18764 -14.71604,15.81974 -14.71604,41.94072 0,26.12097 14.71604,42.30861 15.08394,15.81974 39.36541,15.81974 z"
     id="txt_scuola_o"
     inkscape:label="txt_scuola_o" />
    <path
     d="m 804.6008,373.83951 q -9.56542,0 -16.92344,-4.41482 -7.35802,-4.78271 -11.77283,-13.61233 -4.04692,-8.82963 -4.04692,-21.70616 V 121.45942 h 36.0543 v 199.77024 q 0,11.40493 5.51852,15.45184 5.88641,4.04691 13.24443,4.04691 v 29.43208 q -4.78271,1.83951 -10.30122,2.57531 -5.51852,1.10371 -11.77284,1.10371 z"
     id="txt_scuola_l"
     inkscape:label="txt_scuola_l" />
    <path
     d="m 903.9339,377.15061 q -20.97036,0 -36.0543,-7.35802 -15.08394,-7.35802 -23.17776,-20.97035 -7.72592,-13.98024 -7.72592,-33.11109 0,-17.65925 8.09382,-31.27159 8.09382,-13.98024 23.17776,-22.07406 15.08395,-8.09382 35.6864,-8.09382 25.75307,0 41.20491,11.77283 15.81975,11.40493 22.07406,31.63949 h -20.60245 v -45.98763 q 0,-11.40493 -7.72592,-20.97035 -7.72592,-9.56543 -27.22468,-9.56543 -10.30123,0 -22.80986,2.57531 -12.14073,2.2074 -25.38517,8.09382 l -11.03703,-28.32838 q 15.08394,-7.35802 31.27159,-11.03703 16.18764,-3.67901 31.63948,-3.67901 23.17777,0 38.26171,8.46172 15.08394,8.46173 22.44196,22.80987 7.35802,13.98023 7.35802,31.63948 V 372 h -26.48887 l -9.19753,-32.74319 19.49875,-5.51851 q -6.62221,21.70615 -23.54566,32.74318 -16.92345,10.66913 -39.73331,10.66913 z m 6.62222,-32.74319 q 16.18764,0 26.12097,-7.35802 9.93333,-7.72592 9.93333,-21.33825 0,-13.98024 -9.93333,-21.33826 -9.93333,-7.35802 -26.12097,-7.35802 -16.18764,0 -26.12097,7.35802 -9.93333,7.35802 -9.93333,21.33826 0,13.61233 9.93333,21.33825 9.93333,7.35802 26.12097,7.35802 z"
     id="txt_scuola_a"
     inkscape:label="txt_scuola_a" />
   </g>
   <g
    aria-label="ync"
    id="txt_ync"
    inkscape:label="txt_ync">
    <path
     d="m 1319.5234,349.19014 -71.0049,-156.72583 h 38.6296 l 62.9111,138.69868 z m -47.0913,92.71105 113.3135,-249.43688 h 38.6296 l -113.3135,249.43688 z"
     id="txt_ync_y"
     inkscape:label="txt_ync_y" />
    <path
     d="m 1537.3213,188.7853 q 19.1309,0 30.1679,6.62222 11.0371,6.25432 16.1877,17.29135 5.1506,10.66913 6.6222,24.28146 1.4716,13.61234 1.4716,27.96048 V 372 h -36.7901 V 257.21489 q 0,-19.13085 -8.8296,-25.75307 -8.4618,-6.62222 -20.2346,-6.62222 -11.7728,0 -23.9136,4.78271 -12.1407,4.78272 -21.7061,12.87654 -9.5654,8.09382 -14.716,18.02715 v -20.60246 h 5.8864 V 372 H 1434.677 V 192.46431 h 27.9604 l 7.726,31.63949 -9.1976,1.1037 q 10.3013,-11.77283 22.442,-19.86665 12.1407,-8.09383 25.7531,-12.14074 13.6123,-4.41481 27.9604,-4.41481 z"
     id="txt_ync_n"
     inkscape:label="txt_ync_n" />
    <path
     d="m 1703.6132,375.67901 q -27.5926,0 -47.8272,-11.77283 -20.2345,-12.14074 -31.2716,-33.11109 -11.037,-20.97036 -11.037,-48.56293 0,-27.59258 11.037,-48.56294 11.0371,-20.97035 31.2716,-32.74319 20.2346,-12.14073 47.8272,-12.14073 26.1209,0 47.4592,14.34814 21.3382,13.98024 30.9037,37.5259 l -34.9506,14.71604 q -5.8864,-15.45184 -17.6593,-23.17776 -11.7728,-8.09382 -26.8567,-8.09382 -22.0741,0 -36.7901,15.45184 -14.7161,15.08394 -14.7161,42.67652 0,27.59257 14.7161,43.04441 14.716,15.08394 36.7901,15.08394 15.0839,0 26.8567,-7.72592 11.7729,-8.09382 17.6593,-23.54566 l 34.9506,14.71604 q -9.9334,23.54566 -31.2716,37.8938 -20.9704,13.98024 -47.0913,13.98024 z"
     id="txt_ync_c"
     inkscape:label="txt_ync_c" />
   </g>
  </g>
  <path
   d="M 85.5,7 C 85.5,7 27,31.5 26.5,53 26,74.5 77,47.5 77,68 77,88.5 25.6667,118.833 4,130.5"
   id="scuolasync_s"
   style="fill:none;stroke:#c00f19;stroke-width:12.1517;stroke-dasharray:none;stroke-opacity:1"
   transform="matrix(3.7844432,0,0,3.7844432,924,0)"
   inkscape:label="scuolasync_s" />
 </g>
</svg>